# xmcd
#
# Track frame offsets: 
#        150
#        11459
#        22663
#        31921
#        43599
#        54032
#        63565
#        73941
#        82936
#        88606
#        95462
#        105618
#        115507
#        122952
#        131893
#        137589
#        147275
#        159593
#        170338
#        179122
#        189625
#        197686
#        204894
#
# Disc length: 2834 seconds
#
# Revision: 0
# Processed by: cddbd v1.5.2PL0 Copyright (c) Steve Scherf et al.
# Submitted via: ExactAudioCopyFreeDBPlugin 1.0
#
DISCID=360b1017
DTITLE=Buck Owens - The Essential Buck Owens Disc 2
DYEAR=2012
DGENRE=Country
TTITLE0=The One You Slip Around With
TTITLE1=Til These Dreams Come True
TTITLE2=I'll Give My Heart to You
TTITLE3=I Gotta Right to Know
TTITLE4=My Everlasting Love
TTITLE5=There Goes My Love
TTITLE6=Sweethearts in Heaven
TTITLE7=It Don't Show On Me
TTITLE8=Three Dimension Love
TTITLE9=You're for Me
TTITLE10=Hot Dog
TTITLE11=Rhythm and Booze (As Corky Jones)
TTITLE12=Down On the Corner Of Love (As Corky Jones)
TTITLE13=Why Don't Mommy Stay With Daddy and Me
TTITLE14=Blue Love
TTITLE15=Country Girl
TTITLE16=House Down the Block
TTITLE17=I Will Love You Always
TTITLE18=Higher and Higher and Higher
TTITLE19=Right After the Dance
TTITLE20=When I Hold You
TTITLE21=Please Don't Take Her From Me
TTITLE22=That Ain't Right Baby
EXTD=
EXTT0=
EXTT1=
EXTT2=
EXTT3=
EXTT4=
EXTT5=
EXTT6=
EXTT7=
EXTT8=
EXTT9=
EXTT10=
EXTT11=
EXTT12=
EXTT13=
EXTT14=
EXTT15=
EXTT16=
EXTT17=
EXTT18=
EXTT19=
EXTT20=
EXTT21=
EXTT22=
PLAYORDER=
